<?xml version="1.0" standalone="no"?>
<!DOCTYPE svg PUBLIC "-//W3C//DTD SVG 20010904//EN"
 "http://www.w3.org/TR/2001/REC-SVG-20010904/DTD/svg10.dtd">
<svg version="1.0" xmlns="http://www.w3.org/2000/svg"
 width="1364.000000pt" height="1364.000000pt" viewBox="0 0 1364.000000 1364.000000"
 preserveAspectRatio="xMidYMid meet">
<metadata>
Created by potrace 1.11, written by Peter Selinger 2001-2013
</metadata>
<g transform="translate(0.000000,1364.000000) scale(0.100000,-0.100000)"
fill="#000000" stroke="none">
<path d="M5961 12798 c-5 -13 -42 -106 -81 -208 -92 -234 -147 -376 -200 -515
-23 -60 -48 -123 -55 -140 -12 -27 -335 -857 -467 -1200 -27 -71 -56 -143 -63
-160 -7 -16 -34 -86 -60 -155 -26 -69 -54 -138 -61 -155 -14 -35 -196 -502
-229 -590 -12 -33 -142 -366 -288 -740 -243 -624 -323 -829 -607 -1560 -54
-137 -113 -290 -133 -340 -19 -49 -90 -232 -157 -405 -67 -173 -127 -328 -135
-345 -7 -16 -31 -77 -53 -135 -96 -251 -274 -707 -282 -725 -5 -11 -79 -202
-165 -425 -86 -223 -160 -414 -165 -425 -5 -11 -65 -164 -133 -340 -68 -176
-127 -329 -132 -340 -5 -11 -9 -22 -9 -25 -1 -3 -16 -43 -35 -90 -18 -47 -46
-119 -63 -160 -16 -41 -33 -84 -38 -95 -4 -11 -40 -103 -79 -205 -40 -102 -94
-241 -121 -310 -120 -309 -161 -412 -200 -515 -23 -60 -47 -123 -54 -140 -19
-44 -41 -99 -42 -105 0 -3 -5 -16 -11 -30 -6 -14 -34 -86 -62 -160 -28 -74
-56 -144 -61 -155 -5 -11 -32 -81 -61 -155 -81 -214 -120 -313 -129 -335 -5
-11 -36 -92 -70 -180 -34 -88 -65 -169 -70 -180 -13 -29 -40 -97 -40 -101 0
-2 363 -4 808 -4 l807 0 158 428 c87 235 162 436 167 447 4 11 21 56 38 100
159 423 214 571 216 580 2 6 6 17 9 25 4 8 13 33 20 55 15 41 34 92 127 340
54 144 308 826 491 1318 l103 277 2509 -2 2508 -3 370 -1020 c204 -561 374
-1029 379 -1040 5 -11 77 -209 160 -440 137 -379 219 -604 343 -945 l42 -115
879 -3 c704 -2 877 0 869 10 -5 7 -22 47 -37 88 -15 41 -32 84 -37 95 -5 11
-33 83 -63 160 -100 261 -127 330 -136 350 -12 28 -123 312 -215 550 -42 110
-83 214 -90 230 -7 17 -83 212 -170 435 -277 713 -317 814 -336 857 -10 24
-19 46 -19 49 0 4 -24 68 -54 143 -30 75 -102 260 -161 411 -58 151 -110 284
-115 295 -5 11 -57 144 -115 295 -59 151 -110 284 -115 295 -6 11 -87 218
-180 460 -94 242 -183 469 -198 505 -15 36 -27 67 -28 70 0 3 -4 14 -9 25 -5
11 -129 331 -277 710 -148 380 -273 699 -278 710 -10 23 -270 685 -274 700 -2
6 -7 19 -11 30 -5 11 -32 81 -61 155 -28 74 -108 279 -177 455 -146 374 -177
453 -263 675 -36 91 -68 174 -74 185 -5 11 -63 160 -129 330 -66 171 -194 499
-284 730 -171 436 -198 506 -299 765 -33 85 -64 164 -68 175 -5 11 -30 74 -56
140 -25 66 -74 192 -109 280 -34 88 -93 238 -130 333 l-67 172 -874 0 -874 0
-9 -22z m1101 -2048 c125 -349 247 -691 272 -760 24 -69 157 -442 296 -830
303 -846 339 -948 350 -980 4 -14 31 -90 60 -170 29 -80 71 -199 95 -265 23
-66 112 -316 198 -555 85 -239 180 -505 210 -590 102 -287 198 -555 204 -570
4 -8 7 -17 8 -20 1 -3 4 -12 8 -20 14 -36 47 -131 47 -135 0 -3 -904 -5 -2010
-5 l-2009 0 26 68 c26 69 91 249 122 337 10 28 119 329 244 670 124 341 291
802 371 1025 81 223 150 412 153 420 3 8 7 17 8 20 1 3 4 12 8 20 6 16 22 60
227 630 72 201 135 374 140 385 5 11 129 351 275 755 458 1263 438 1211 455
1208 10 -2 86 -202 242 -638z"/>
</g>
</svg>
